# xmcd CD database file
#
# Track frame offsets:
#	150
#	56150
#	96725
#	118700
#	143175
#	170750
#	205175
#	236000
#
# Disc length: 3780 seconds
#
# Revision: 7
# Processed by: cddbd v1.5.2PL0 Copyright (c) Steve Scherf et al.
# Submitted via: CDex 1.51
#
DISCID=7c0ec208
DTITLE=Febus Avant! - Music at the Court of Gaston Febius [1331-1391]  (Huelgas Ensemble, Paul Van Nevel)
DYEAR=1991
DGENRE=Classique
TTITLE0=Anonymous (c.1370) - Le Mont Aon de Thrace
TTITLE1=Trebor (last decades 14th century) - En seumeillant
TTITLE2=Anonymous (c.1360) - Febus mundo Oriens - Lanista viereus - Cornibus
TTITLE3=Anonymous (c.1365) - Tres dous compains
TTITLE4=Anonymous (c.1350) - Altissonis aptatis - Hin principes
TTITLE5=Solage (last third of the 14th century) - Fumeux fume
TTITLE6=Anonymous (c.1385) - Inter densas - Imbribus irriguis
TTITLE7=Johannes Cuvelier (last decades of the 14th century) - Se Galaas
EXTD=YEAR: 1991
EXTT0=
EXTT1=
EXTT2=
EXTT3=
EXTT4=
EXTT5=
EXTT6=
EXTT7=
PLAYORDER=
